<svg xmlns="http://www.w3.org/2000/svg" version="1.1" xmlns:xlink="http://www.w3.org/1999/xlink" xmlns:svgjs="http://svgjs.com/svgjs" width="1920" height="1080" preserveAspectRatio="none" viewBox="0 0 1920 1080"><g mask="url(&quot;#SvgjsMask1035&quot;)" fill="none"><rect width="1920" height="1080" x="0" y="0" fill="#0e2a47"></rect><path d="M1279.09 311.77L1364.12 311.77L1364.12 322.9L1279.09 322.9z" stroke="#e73635"></path><path d="M1492.61 115.52L1505.99 115.52L1505.99 128.9L1492.61 128.9z" fill="#037b0b"></path><path d="M282.07 413.7 a14.87 14.87 0 1 0 29.74 0 a14.87 14.87 0 1 0 -29.74 0z" stroke="#d3b714"></path><path d="M796.96 80.45a50.07 50.07 0 1 0-99.69 9.5z" stroke="#037b0b"></path><path d="M287.33 954.4L308.28 954.4L308.28 1027.06L287.33 1027.06z" fill="#037b0b"></path><path d="M1868.53 417.92L1876.83 417.92L1876.83 426.22L1868.53 426.22z" fill="#e73635"></path><path d="M454.75 261.83a17.73 17.73 0 1 0-25.6 24.55z" fill="#037b0b"></path><path d="M1127.89 347.24 a98.62 98.62 0 1 0 197.24 0 a98.62 98.62 0 1 0 -197.24 0z" stroke="#037b0b"></path><path d="M578.71 559.4L599.6 559.4L599.6 608.66L578.71 608.66z" stroke="#d3b714"></path><path d="M1786.07 376.93L1876.24 376.93L1876.24 467.1L1786.07 467.1z" stroke="#037b0b"></path><path d="M399.11 837.82 a63.44 63.44 0 1 0 126.88 0 a63.44 63.44 0 1 0 -126.88 0z" fill="#d3b714"></path><path d="M1274.45 1063.55 a4.85 4.85 0 1 0 9.7 0 a4.85 4.85 0 1 0 -9.7 0z" fill="#037b0b"></path><path d="M761.19 143.08 a76.66 76.66 0 1 0 153.32 0 a76.66 76.66 0 1 0 -153.32 0z" fill="#d3b714"></path><path d="M248.15 456.21 a68.4 68.4 0 1 0 136.8 0 a68.4 68.4 0 1 0 -136.8 0z" stroke="#037b0b"></path><path d="M226.16 850.57L247.88 850.57L247.88 872.29L226.16 872.29z" stroke="#037b0b"></path><path d="M1915.29 659.75L1933.94 659.75L1933.94 707.03L1915.29 707.03z" stroke="#037b0b"></path><path d="M823.87 273.5L922.05 273.5L922.05 371.68L823.87 371.68z" stroke="#d3b714"></path><path d="M686.6 719.22L767.72 719.22L767.72 781.7L686.6 781.7z" fill="#e73635"></path><path d="M1734.27 823.07L1812.5 823.07L1812.5 907.43L1734.27 907.43z" fill="#037b0b"></path><path d="M698.65 525.58L757.83 525.58L757.83 585.61L698.65 585.61z" fill="#d3b714"></path><path d="M670.74 37.94a32.52 32.52 0 1 0-3.36-64.95z" stroke="#d3b714"></path><path d="M832.43 487.17L924.1 487.17L924.1 517.36L832.43 517.36z" fill="#e73635"></path><path d="M635.78 21.62L680.16 21.62L680.16 90.69L635.78 90.69z" stroke="#d3b714"></path></g><defs><mask id="SvgjsMask1035"><rect width="1920" height="1080" fill="#ffffff"></rect></mask></defs></svg>